<svg width="91" height="91" viewBox="0 0 91 91" fill="none" xmlns="http://www.w3.org/2000/svg">
<path d="M0 25.6C0 16.6392 0 12.1587 1.7439 8.73615C3.27787 5.72556 5.72556 3.27787 8.73615 1.7439C12.1587 0 16.6392 0 25.6 0H65.4C74.3608 0 78.8413 0 82.2638 1.7439C85.2744 3.27787 87.7221 5.72556 89.2561 8.73615C91 12.1587 91 16.6392 91 25.6V65.4C91 74.3608 91 78.8413 89.2561 82.2638C87.7221 85.2744 85.2744 87.7221 82.2638 89.2561C78.8413 91 74.3608 91 65.4 91H25.6C16.6392 91 12.1587 91 8.73615 89.2561C5.72556 87.7221 3.27787 85.2744 1.7439 82.2638C0 78.8413 0 74.3608 0 65.4V25.6Z" fill="black" fill-opacity="0.3"/>
<path d="M25.5694 6C27.109 3.33333 30.958 3.33333 32.4976 6L50.7131 37.5502C52.2527 40.2169 50.3282 43.5502 47.249 43.5502L10.8179 43.5502C7.73875 43.5502 5.81425 40.2169 7.35385 37.5502L25.5694 6Z" transform="translate(11.1108 24.3133) rotate(-10.1195)" fill="#FFEECC"/>
</svg>
